<?xml version="1.0" encoding="UTF-8" standalone="no"?>
<!DOCTYPE svg PUBLIC "-//W3C//DTD SVG 1.1//EN" "http://www.w3.org/Graphics/SVG/1.1/DTD/svg11.dtd">
<!-- 由 Microsoft Visio, SVG Export 生成 network1.svg 页-1 -->
<svg xmlns="http://www.w3.org/2000/svg" xmlns:xlink="http://www.w3.org/1999/xlink" xmlns:ev="http://www.w3.org/2001/xml-events"
		xmlns:v="http://schemas.microsoft.com/visio/2003/SVGExtensions/" width="6.42427in" height="3.48888in"
		viewBox="0 0 462.547 251.2" xml:space="preserve" color-interpolation-filters="sRGB" class="st17">
	<v:documentProperties v:langID="1028" v:metric="true" v:viewMarkup="false"/>

	<style type="text/css">
	<![CDATA[
		.st1 {fill:#e0eadc;stroke:#ffffff;stroke-linecap:round;stroke-linejoin:round;stroke-width:0.5}
		.st2 {fill:#71ac41;font-family:宋体;font-size:1.00001em}
		.st3 {fill:#5b9bd5;stroke:#ffffff;stroke-linecap:round;stroke-linejoin:round;stroke-width:0.5}
		.st4 {fill:#aad288;stroke:#ffffff;stroke-linecap:round;stroke-linejoin:round;stroke-width:0.5}
		.st5 {fill:#ffffff}
		.st6 {fill:#1e4a73;font-family:Calibri;font-size:0.833336em}
		.st7 {fill:#1e4a73;font-family:宋体;font-size:0.833336em}
		.st8 {font-family:Calibri;font-size:1em}
		.st9 {fill:#a5a5a5;stroke:#ffffff;stroke-linecap:round;stroke-linejoin:round;stroke-width:0.5}
		.st10 {marker-end:url(#mrkr10-73);marker-start:url(#mrkr10-71);stroke:#000000;stroke-linecap:round;stroke-linejoin:round;stroke-width:0.5}
		.st11 {fill:#000000;fill-opacity:1;stroke:#000000;stroke-opacity:1;stroke-width:0.16556291390728}
		.st12 {fill:#ffffff;stroke:none;stroke-linecap:butt;stroke-width:7.2}
		.st13 {fill:#000000;font-family:Calibri;font-size:0.666664em}
		.st14 {font-family:宋体;font-size:1em}
		.st15 {fill:#5b9bd5;stroke:#feffff;stroke-linecap:butt;stroke-width:0.75}
		.st16 {fill:#002060;font-family:宋体;font-size:0.833336em}
		.st17 {fill:none;fill-rule:evenodd;font-size:12px;overflow:visible;stroke-linecap:square;stroke-miterlimit:3}
	]]>
	</style>

	<defs id="Markers">
		<g id="lend10">
			<path
					d="M 0 0.75 C -0.414214 0.75 -0.75 0.414214 -0.75 0 -0.75 -0.414214 -0.414214 -0.75 0 -0.75 0.414214 -0.75 0.75 -0.414214 0.75 0 0.75 0.414214 0.414214 0.75 0 0.75 Z "
					style="stroke:none"/>
		</g>
		<marker id="mrkr10-71" class="st11" v:arrowType="10" v:arrowSize="2" v:setback="3.81" refX="3.81" orient="auto"
				markerUnits="strokeWidth" overflow="visible">
			<use xlink:href="#lend10" transform="scale(6.04) "/>
		</marker>
		<marker id="mrkr10-73" class="st11" v:arrowType="10" v:arrowSize="2" v:setback="4.53" refX="-4.53" orient="auto"
				markerUnits="strokeWidth" overflow="visible">
			<use xlink:href="#lend10" transform="scale(-6.04,-6.04) "/>
		</marker>
	</defs>
	<g v:mID="0" v:index="1" v:groupContext="foregroundPage">
		<title>页-1</title>
		<v:pageProperties v:drawingScale="0.0393701" v:pageScale="0.0393701" v:drawingUnits="24" v:shadowOffsetX="8.50394"
				v:shadowOffsetY="-8.50394"/>
		<v:layer v:name="連接器" v:index="0"/>
		<g id="shape65-1" v:mID="65" v:groupContext="shape" transform="translate(0.25,-23.0107)">
			<title>工作表.65</title>
			<desc>树莓派内部网络</desc>
			<v:textBlock v:margins="rect(4,4,4,4)" v:tabSpace="42.5197" v:verticalAlign="2"/>
			<v:textRect cx="157.323" cy="197.508" width="314.65" height="153.404"/>
			<rect x="0" y="120.806" width="314.646" height="130.394" class="st1"/>
			<text x="226.65" y="266.22" class="st2" v:langID="2052"><v:paragraph v:horizAlign="2"/><v:tabList/>树莓派内部网络</text>		</g>
		<g id="group49-4" transform="translate(21.8136,-34.3492)" v:mID="49" v:groupContext="group">
			<v:custProps>
				<v:cp v:nameU="AssetNumber" v:lbl="資產編號" v:prompt="" v:type="0" v:format="" v:sortKey="Asset" v:invis="false"
						v:ask="false" v:langID="1028" v:cal="0"/>
				<v:cp v:nameU="SerialNumber" v:lbl="序號" v:prompt="" v:type="0" v:format="" v:sortKey="Asset" v:invis="false"
						v:ask="false" v:langID="1028" v:cal="0"/>
				<v:cp v:nameU="Location" v:lbl="位置" v:prompt="" v:type="0" v:format="" v:sortKey="Asset" v:invis="false"
						v:ask="false" v:langID="1028" v:cal="0"/>
				<v:cp v:nameU="Building" v:lbl="建築物" v:prompt="" v:type="0" v:format="" v:sortKey="Asset" v:invis="false"
						v:ask="false" v:langID="1028" v:cal="0"/>
				<v:cp v:nameU="Room" v:lbl="房間" v:prompt="" v:type="0" v:format="" v:sortKey="Asset" v:invis="false" v:ask="false"
						v:langID="1028" v:cal="0"/>
				<v:cp v:nameU="Manufacturer" v:lbl="製造廠商" v:prompt="" v:type="0" v:format="" v:sortKey="Equipment" v:invis="false"
						v:ask="false" v:langID="1028" v:cal="0"/>
				<v:cp v:nameU="ProductNumber" v:lbl="產品編號" v:prompt="" v:type="0" v:format="" v:sortKey="Equipment" v:invis="false"
						v:ask="false" v:langID="1028" v:cal="0"/>
				<v:cp v:nameU="PartNumber" v:lbl="零件編號" v:prompt="" v:type="0" v:format="" v:sortKey="Equipment" v:invis="false"
						v:ask="false" v:langID="1028" v:cal="0"/>
				<v:cp v:nameU="ProductDescription" v:lbl="產品說明" v:prompt="" v:type="0" v:format="" v:sortKey="Equipment"
						v:invis="false" v:ask="false" v:langID="1028" v:cal="0"/>
				<v:cp v:nameU="NetworkName" v:lbl="網路名稱" v:prompt="" v:type="0" v:format="" v:sortKey="Network" v:invis="false"
						v:ask="false" v:langID="1028" v:cal="0"/>
				<v:cp v:nameU="IPAddress" v:lbl="IP 位址" v:prompt="" v:type="0" v:format="" v:sortKey="Network" v:invis="false"
						v:ask="false" v:langID="1028" v:cal="0"/>
				<v:cp v:nameU="SubnetMask" v:lbl="子網路遮罩" v:prompt="" v:type="0" v:format="" v:sortKey="Network" v:invis="false"
						v:ask="false" v:langID="1028" v:cal="0"/>
				<v:cp v:nameU="AdminInterface" v:lbl="系統管理介面" v:prompt="" v:type="0" v:format="" v:sortKey="Network"
						v:invis="false" v:ask="false" v:langID="1028" v:cal="0"/>
				<v:cp v:nameU="NumberofPorts" v:lbl="連接埠數目" v:prompt="" v:type="0" v:format="" v:sortKey="Network" v:invis="false"
						v:ask="false" v:langID="1028" v:cal="0"/>
				<v:cp v:nameU="CommunityString" v:lbl="群區字串" v:prompt="" v:type="0" v:format="" v:sortKey="Network" v:invis="false"
						v:ask="false" v:langID="1028" v:cal="0"/>
				<v:cp v:nameU="NetworkDescription" v:lbl="網路描述" v:prompt="" v:type="0" v:format="" v:sortKey="Network"
						v:invis="false" v:ask="false" v:langID="1028" v:cal="0"/>
				<v:cp v:nameU="MACAddress" v:lbl="MAC 位址" v:prompt="" v:type="0" v:format="" v:sortKey="Network" v:invis="false"
						v:ask="false" v:langID="1028" v:cal="0"/>
				<v:cp v:nameU="ShapeClass" v:lbl="ShapeClass" v:prompt="" v:type="0" v:format="" v:sortKey="" v:invis="true"
						v:ask="false" v:langID="1028" v:cal="0" v:val="VT4(設備)"/>
				<v:cp v:nameU="ShapeType" v:lbl="ShapeType" v:prompt="" v:type="0" v:format="" v:sortKey="" v:invis="true"
						v:ask="false" v:langID="1028" v:cal="0" v:val="VT4(裝置)"/>
				<v:cp v:nameU="SubShapeType" v:lbl="SubShapeType" v:prompt="" v:type="0" v:format="" v:sortKey="" v:invis="true"
						v:ask="false" v:langID="1028" v:cal="0" v:val="VT4(交換器)"/>
			</v:custProps>
			<v:userDefs>
				<v:ud v:nameU="visVersion" v:prompt="" v:val="VT0(15):26"/>
				<v:ud v:nameU="ShapeClass" v:prompt="" v:val="VT0(5):26"/>
				<v:ud v:nameU="SolSH" v:prompt="" v:val="VT15({BF0433D9-CD73-4EB5-8390-8653BE590246}):41"/>
				<v:ud v:nameU="visLegendShape" v:prompt="" v:val="VT0(2):26"/>
				<v:ud v:nameU="visIsConnected" v:prompt="" v:val="VT0(0):26"/>
			</v:userDefs>
			<title>開關</title>
			<desc>vmbr0</desc>
			<g id="shape50-5" v:mID="50" v:groupContext="shape" transform="translate(0,-23.9715)">
				<title>工作表.50</title>
				<path d="M65.4 251.2 L66.82 248.36 L4.05 248.36 L5.46 251.2 L65.4 251.2 ZM0 247.01 L70.87 247.01 L70.87 228.28 L0
							 228.28 L0 247.01 Z" class="st3"/>
			</g>
			<g id="shape51-7" v:mID="51" v:groupContext="shape" transform="translate(54.6669,-31.7016)">
				<title>工作表.51</title>
				<rect x="0" y="239.668" width="12.1507" height="11.532" class="st4"/>
			</g>
			<g id="shape52-9" v:mID="52" v:groupContext="shape" transform="translate(5.61827,-32.827)">
				<title>工作表.52</title>
				<v:userDefs>
					<v:ud v:nameU="SurroundingRegionColor" v:prompt="" v:val="VT0(1):26"/>
					<v:ud v:nameU="SurroundingRegionColor" v:prompt="" v:val="VT5(#5b9bd5)"/>
				</v:userDefs>
				<path d="M4.98 247.56 L0 247.56 L0 249.95 L1.3 249.95 L1.3 251.2 L3.69 251.2 L3.69 249.95 L4.98 249.95 L4.98 247.56
							 ZM12.99 247.56 L8.01 247.56 L8.01 249.95 L9.3 249.95 L9.3 251.2 L11.7 251.2 L11.7 249.95 L12.99 249.95
							 L12.99 247.56 ZM21 247.56 L16.02 247.56 L16.02 249.95 L17.31 249.95 L17.31 251.2 L19.7 251.2 L19.7 249.95
							 L21 249.95 L21 247.56 ZM29.01 247.56 L24.02 247.56 L24.02 249.95 L25.32 249.95 L25.32 251.2 L27.71 251.2
							 L27.71 249.95 L29.01 249.95 L29.01 247.56 ZM37.02 247.56 L32.03 247.56 L32.03 249.95 L33.33 249.95 L33.33
							 251.2 L35.72 251.2 L35.72 249.95 L37.02 249.95 L37.02 247.56 ZM37.02 241.79 L32.03 241.79 L32.03 244.18
							 L33.33 244.18 L33.33 245.43 L35.72 245.43 L35.72 244.18 L37.02 244.18 L37.02 241.79 ZM29.01 241.79 L24.02
							 241.79 L24.02 244.18 L25.32 244.18 L25.32 245.43 L27.71 245.43 L27.71 244.18 L29.01 244.18 L29.01 241.79
							 ZM21 241.79 L16.02 241.79 L16.02 244.18 L17.31 244.18 L17.31 245.43 L19.7 245.43 L19.7 244.18 L21 244.18
							 L21 241.79 ZM12.99 241.79 L8.01 241.79 L8.01 244.18 L9.3 244.18 L9.3 245.43 L11.7 245.43 L11.7 244.18
							 L12.99 244.18 L12.99 241.79 ZM4.98 241.79 L0 241.79 L0 244.18 L1.3 244.18 L1.3 245.43 L3.69 245.43 L3.69
							 244.18 L4.98 244.18 L4.98 241.79 Z" class="st5"/>
			</g>
			<g id="shape53-12" v:mID="53" v:groupContext="shape" transform="translate(55.6646,-33.6193)">
				<title>工作表.53</title>
				<v:userDefs>
					<v:ud v:nameU="SurroundingRegionColor" v:prompt="" v:val="VT0(1):26"/>
					<v:ud v:nameU="SurroundingRegionColor" v:prompt="" v:val="VT5(#aad288)"/>
				</v:userDefs>
				<path d="M5.63 247.08 L7.14 245.13 L8.86 245.13 L7.97 246.01 L9 246.01 L10.16 244.76 L9.01 243.5 L7.96 243.5 L8.85
							 244.38 L6.61 244.38 L5.08 246.36 L3.55 244.38 L1.31 244.38 L2.19 243.5 L1.15 243.5 L0 244.76 L1.15 246.01
							 L2.19 246.01 L1.3 245.13 L3.01 245.13 L4.52 247.08 L2.6 249.57 L1.3 249.58 L2.19 248.7 L1.15 248.7 L0
							 249.95 L1.15 251.2 L2.19 251.2 L1.31 250.33 L3.14 250.33 L5.08 247.81 L7.02 250.33 L8.85 250.33 L7.96
							 251.2 L9.01 251.2 L10.16 249.95 L9 248.7 L7.97 248.7 L8.86 249.58 L7.55 249.57 L5.63 247.08 Z"
						class="st5"/>
			</g>
			<g id="shape49-15" v:mID="49" v:groupContext="groupContent">
				<v:textBlock v:margins="rect(4,4,4,4)" v:tabSpace="42.5197"/>
				<v:textRect cx="35.4331" cy="237.026" width="36.58" height="20.0036"/>
				<text x="22.28" y="240.03" class="st6" v:langID="2052"><v:paragraph v:horizAlign="1"/><v:tabList/>vmbr0</text>			</g>
		</g>
		<g id="group54-17" transform="translate(123.557,-34.3492)" v:mID="54" v:groupContext="group">
			<v:custProps>
				<v:cp v:nameU="AssetNumber" v:lbl="資產編號" v:prompt="" v:type="0" v:format="" v:sortKey="Asset" v:invis="false"
						v:ask="false" v:langID="1028" v:cal="0"/>
				<v:cp v:nameU="SerialNumber" v:lbl="序號" v:prompt="" v:type="0" v:format="" v:sortKey="Asset" v:invis="false"
						v:ask="false" v:langID="1028" v:cal="0"/>
				<v:cp v:nameU="Location" v:lbl="位置" v:prompt="" v:type="0" v:format="" v:sortKey="Asset" v:invis="false"
						v:ask="false" v:langID="1028" v:cal="0"/>
				<v:cp v:nameU="Building" v:lbl="建築物" v:prompt="" v:type="0" v:format="" v:sortKey="Asset" v:invis="false"
						v:ask="false" v:langID="1028" v:cal="0"/>
				<v:cp v:nameU="Room" v:lbl="房間" v:prompt="" v:type="0" v:format="" v:sortKey="Asset" v:invis="false" v:ask="false"
						v:langID="1028" v:cal="0"/>
				<v:cp v:nameU="Manufacturer" v:lbl="製造廠商" v:prompt="" v:type="0" v:format="" v:sortKey="Equipment" v:invis="false"
						v:ask="false" v:langID="1028" v:cal="0"/>
				<v:cp v:nameU="ProductNumber" v:lbl="產品編號" v:prompt="" v:type="0" v:format="" v:sortKey="Equipment" v:invis="false"
						v:ask="false" v:langID="1028" v:cal="0"/>
				<v:cp v:nameU="PartNumber" v:lbl="零件編號" v:prompt="" v:type="0" v:format="" v:sortKey="Equipment" v:invis="false"
						v:ask="false" v:langID="1028" v:cal="0"/>
				<v:cp v:nameU="ProductDescription" v:lbl="產品說明" v:prompt="" v:type="0" v:format="" v:sortKey="Equipment"
						v:invis="false" v:ask="false" v:langID="1028" v:cal="0"/>
				<v:cp v:nameU="NetworkName" v:lbl="網路名稱" v:prompt="" v:type="0" v:format="" v:sortKey="Network" v:invis="false"
						v:ask="false" v:langID="1028" v:cal="0"/>
				<v:cp v:nameU="IPAddress" v:lbl="IP 位址" v:prompt="" v:type="0" v:format="" v:sortKey="Network" v:invis="false"
						v:ask="false" v:langID="1028" v:cal="0"/>
				<v:cp v:nameU="SubnetMask" v:lbl="子網路遮罩" v:prompt="" v:type="0" v:format="" v:sortKey="Network" v:invis="false"
						v:ask="false" v:langID="1028" v:cal="0"/>
				<v:cp v:nameU="AdminInterface" v:lbl="系統管理介面" v:prompt="" v:type="0" v:format="" v:sortKey="Network"
						v:invis="false" v:ask="false" v:langID="1028" v:cal="0"/>
				<v:cp v:nameU="NumberofPorts" v:lbl="連接埠數目" v:prompt="" v:type="0" v:format="" v:sortKey="Network" v:invis="false"
						v:ask="false" v:langID="1028" v:cal="0"/>
				<v:cp v:nameU="CommunityString" v:lbl="群區字串" v:prompt="" v:type="0" v:format="" v:sortKey="Network" v:invis="false"
						v:ask="false" v:langID="1028" v:cal="0"/>
				<v:cp v:nameU="NetworkDescription" v:lbl="網路描述" v:prompt="" v:type="0" v:format="" v:sortKey="Network"
						v:invis="false" v:ask="false" v:langID="1028" v:cal="0"/>
				<v:cp v:nameU="MACAddress" v:lbl="MAC 位址" v:prompt="" v:type="0" v:format="" v:sortKey="Network" v:invis="false"
						v:ask="false" v:langID="1028" v:cal="0"/>
				<v:cp v:nameU="ShapeClass" v:lbl="ShapeClass" v:prompt="" v:type="0" v:format="" v:sortKey="" v:invis="true"
						v:ask="false" v:langID="1028" v:cal="0" v:val="VT4(設備)"/>
				<v:cp v:nameU="ShapeType" v:lbl="ShapeType" v:prompt="" v:type="0" v:format="" v:sortKey="" v:invis="true"
						v:ask="false" v:langID="1028" v:cal="0" v:val="VT4(裝置)"/>
				<v:cp v:nameU="SubShapeType" v:lbl="SubShapeType" v:prompt="" v:type="0" v:format="" v:sortKey="" v:invis="true"
						v:ask="false" v:langID="1028" v:cal="0" v:val="VT4(交換器)"/>
			</v:custProps>
			<v:userDefs>
				<v:ud v:nameU="visVersion" v:prompt="" v:val="VT0(15):26"/>
				<v:ud v:nameU="ShapeClass" v:prompt="" v:val="VT0(5):26"/>
				<v:ud v:nameU="SolSH" v:prompt="" v:val="VT15({BF0433D9-CD73-4EB5-8390-8653BE590246}):41"/>
				<v:ud v:nameU="visLegendShape" v:prompt="" v:val="VT0(2):26"/>
				<v:ud v:nameU="visIsConnected" v:prompt="" v:val="VT0(0):26"/>
			</v:userDefs>
			<title>開關.54</title>
			<desc>vmbr1</desc>
			<g id="shape55-18" v:mID="55" v:groupContext="shape" transform="translate(0,-23.9715)">
				<title>工作表.55</title>
				<path d="M65.4 251.2 L66.82 248.36 L4.05 248.36 L5.46 251.2 L65.4 251.2 ZM0 247.01 L70.87 247.01 L70.87 228.28 L0
							 228.28 L0 247.01 Z" class="st3"/>
			</g>
			<g id="shape56-20" v:mID="56" v:groupContext="shape" transform="translate(54.6669,-31.7016)">
				<title>工作表.56</title>
				<rect x="0" y="239.668" width="12.1507" height="11.532" class="st4"/>
			</g>
			<g id="shape57-22" v:mID="57" v:groupContext="shape" transform="translate(5.61827,-32.827)">
				<title>工作表.57</title>
				<v:userDefs>
					<v:ud v:nameU="SurroundingRegionColor" v:prompt="" v:val="VT0(1):26"/>
					<v:ud v:nameU="SurroundingRegionColor" v:prompt="" v:val="VT5(#5b9bd5)"/>
				</v:userDefs>
				<path d="M4.98 247.56 L0 247.56 L0 249.95 L1.3 249.95 L1.3 251.2 L3.69 251.2 L3.69 249.95 L4.98 249.95 L4.98 247.56
							 ZM12.99 247.56 L8.01 247.56 L8.01 249.95 L9.3 249.95 L9.3 251.2 L11.7 251.2 L11.7 249.95 L12.99 249.95
							 L12.99 247.56 ZM21 247.56 L16.02 247.56 L16.02 249.95 L17.31 249.95 L17.31 251.2 L19.7 251.2 L19.7 249.95
							 L21 249.95 L21 247.56 ZM29.01 247.56 L24.02 247.56 L24.02 249.95 L25.32 249.95 L25.32 251.2 L27.71 251.2
							 L27.71 249.95 L29.01 249.95 L29.01 247.56 ZM37.02 247.56 L32.03 247.56 L32.03 249.95 L33.33 249.95 L33.33
							 251.2 L35.72 251.2 L35.72 249.95 L37.02 249.95 L37.02 247.56 ZM37.02 241.79 L32.03 241.79 L32.03 244.18
							 L33.33 244.18 L33.33 245.43 L35.72 245.43 L35.72 244.18 L37.02 244.18 L37.02 241.79 ZM29.01 241.79 L24.02
							 241.79 L24.02 244.18 L25.32 244.18 L25.32 245.43 L27.71 245.43 L27.71 244.18 L29.01 244.18 L29.01 241.79
							 ZM21 241.79 L16.02 241.79 L16.02 244.18 L17.31 244.18 L17.31 245.43 L19.7 245.43 L19.7 244.18 L21 244.18
							 L21 241.79 ZM12.99 241.79 L8.01 241.79 L8.01 244.18 L9.3 244.18 L9.3 245.43 L11.7 245.43 L11.7 244.18
							 L12.99 244.18 L12.99 241.79 ZM4.98 241.79 L0 241.79 L0 244.18 L1.3 244.18 L1.3 245.43 L3.69 245.43 L3.69
							 244.18 L4.98 244.18 L4.98 241.79 Z" class="st5"/>
			</g>
			<g id="shape58-25" v:mID="58" v:groupContext="shape" transform="translate(55.6646,-33.6193)">
				<title>工作表.58</title>
				<v:userDefs>
					<v:ud v:nameU="SurroundingRegionColor" v:prompt="" v:val="VT0(1):26"/>
					<v:ud v:nameU="SurroundingRegionColor" v:prompt="" v:val="VT5(#aad288)"/>
				</v:userDefs>
				<path d="M5.63 247.08 L7.14 245.13 L8.86 245.13 L7.97 246.01 L9 246.01 L10.16 244.76 L9.01 243.5 L7.96 243.5 L8.85
							 244.38 L6.61 244.38 L5.08 246.36 L3.55 244.38 L1.31 244.38 L2.19 243.5 L1.15 243.5 L0 244.76 L1.15 246.01
							 L2.19 246.01 L1.3 245.13 L3.01 245.13 L4.52 247.08 L2.6 249.57 L1.3 249.58 L2.19 248.7 L1.15 248.7 L0
							 249.95 L1.15 251.2 L2.19 251.2 L1.31 250.33 L3.14 250.33 L5.08 247.81 L7.02 250.33 L8.85 250.33 L7.96
							 251.2 L9.01 251.2 L10.16 249.95 L9 248.7 L7.97 248.7 L8.86 249.58 L7.55 249.57 L5.63 247.08 Z"
						class="st5"/>
			</g>
			<g id="shape54-28" v:mID="54" v:groupContext="groupContent">
				<v:textBlock v:margins="rect(4,4,4,4)" v:tabSpace="42.5197"/>
				<v:textRect cx="35.4331" cy="236.459" width="36.58" height="20.0036"/>
				<text x="22.28" y="239.46" class="st6" v:langID="2052"><v:paragraph v:horizAlign="1"/><v:tabList/>vmbr1</text>			</g>
		</g>
		<g id="group59-30" transform="translate(225.301,-34.3492)" v:mID="59" v:groupContext="group">
			<v:custProps>
				<v:cp v:nameU="AssetNumber" v:lbl="資產編號" v:prompt="" v:type="0" v:format="" v:sortKey="Asset" v:invis="false"
						v:ask="false" v:langID="1028" v:cal="0"/>
				<v:cp v:nameU="SerialNumber" v:lbl="序號" v:prompt="" v:type="0" v:format="" v:sortKey="Asset" v:invis="false"
						v:ask="false" v:langID="1028" v:cal="0"/>
				<v:cp v:nameU="Location" v:lbl="位置" v:prompt="" v:type="0" v:format="" v:sortKey="Asset" v:invis="false"
						v:ask="false" v:langID="1028" v:cal="0"/>
				<v:cp v:nameU="Building" v:lbl="建築物" v:prompt="" v:type="0" v:format="" v:sortKey="Asset" v:invis="false"
						v:ask="false" v:langID="1028" v:cal="0"/>
				<v:cp v:nameU="Room" v:lbl="房間" v:prompt="" v:type="0" v:format="" v:sortKey="Asset" v:invis="false" v:ask="false"
						v:langID="1028" v:cal="0"/>
				<v:cp v:nameU="Manufacturer" v:lbl="製造廠商" v:prompt="" v:type="0" v:format="" v:sortKey="Equipment" v:invis="false"
						v:ask="false" v:langID="1028" v:cal="0"/>
				<v:cp v:nameU="ProductNumber" v:lbl="產品編號" v:prompt="" v:type="0" v:format="" v:sortKey="Equipment" v:invis="false"
						v:ask="false" v:langID="1028" v:cal="0"/>
				<v:cp v:nameU="PartNumber" v:lbl="零件編號" v:prompt="" v:type="0" v:format="" v:sortKey="Equipment" v:invis="false"
						v:ask="false" v:langID="1028" v:cal="0"/>
				<v:cp v:nameU="ProductDescription" v:lbl="產品說明" v:prompt="" v:type="0" v:format="" v:sortKey="Equipment"
						v:invis="false" v:ask="false" v:langID="1028" v:cal="0"/>
				<v:cp v:nameU="NetworkName" v:lbl="網路名稱" v:prompt="" v:type="0" v:format="" v:sortKey="Network" v:invis="false"
						v:ask="false" v:langID="1028" v:cal="0"/>
				<v:cp v:nameU="IPAddress" v:lbl="IP 位址" v:prompt="" v:type="0" v:format="" v:sortKey="Network" v:invis="false"
						v:ask="false" v:langID="1028" v:cal="0"/>
				<v:cp v:nameU="SubnetMask" v:lbl="子網路遮罩" v:prompt="" v:type="0" v:format="" v:sortKey="Network" v:invis="false"
						v:ask="false" v:langID="1028" v:cal="0"/>
				<v:cp v:nameU="AdminInterface" v:lbl="系統管理介面" v:prompt="" v:type="0" v:format="" v:sortKey="Network"
						v:invis="false" v:ask="false" v:langID="1028" v:cal="0"/>
				<v:cp v:nameU="NumberofPorts" v:lbl="連接埠數目" v:prompt="" v:type="0" v:format="" v:sortKey="Network" v:invis="false"
						v:ask="false" v:langID="1028" v:cal="0"/>
				<v:cp v:nameU="CommunityString" v:lbl="群區字串" v:prompt="" v:type="0" v:format="" v:sortKey="Network" v:invis="false"
						v:ask="false" v:langID="1028" v:cal="0"/>
				<v:cp v:nameU="NetworkDescription" v:lbl="網路描述" v:prompt="" v:type="0" v:format="" v:sortKey="Network"
						v:invis="false" v:ask="false" v:langID="1028" v:cal="0"/>
				<v:cp v:nameU="MACAddress" v:lbl="MAC 位址" v:prompt="" v:type="0" v:format="" v:sortKey="Network" v:invis="false"
						v:ask="false" v:langID="1028" v:cal="0"/>
				<v:cp v:nameU="ShapeClass" v:lbl="ShapeClass" v:prompt="" v:type="0" v:format="" v:sortKey="" v:invis="true"
						v:ask="false" v:langID="1028" v:cal="0" v:val="VT4(設備)"/>
				<v:cp v:nameU="ShapeType" v:lbl="ShapeType" v:prompt="" v:type="0" v:format="" v:sortKey="" v:invis="true"
						v:ask="false" v:langID="1028" v:cal="0" v:val="VT4(裝置)"/>
				<v:cp v:nameU="SubShapeType" v:lbl="SubShapeType" v:prompt="" v:type="0" v:format="" v:sortKey="" v:invis="true"
						v:ask="false" v:langID="1028" v:cal="0" v:val="VT4(交換器)"/>
			</v:custProps>
			<v:userDefs>
				<v:ud v:nameU="visVersion" v:prompt="" v:val="VT0(15):26"/>
				<v:ud v:nameU="ShapeClass" v:prompt="" v:val="VT0(5):26"/>
				<v:ud v:nameU="SolSH" v:prompt="" v:val="VT15({BF0433D9-CD73-4EB5-8390-8653BE590246}):41"/>
				<v:ud v:nameU="visLegendShape" v:prompt="" v:val="VT0(2):26"/>
				<v:ud v:nameU="visIsConnected" v:prompt="" v:val="VT0(0):26"/>
			</v:userDefs>
			<title>開關.59</title>
			<desc>vmbr2 (layer 2)</desc>
			<g id="shape60-31" v:mID="60" v:groupContext="shape" transform="translate(0,-23.9715)">
				<title>工作表.60</title>
				<path d="M65.4 251.2 L66.82 248.36 L4.05 248.36 L5.46 251.2 L65.4 251.2 ZM0 247.01 L70.87 247.01 L70.87 228.28 L0
							 228.28 L0 247.01 Z" class="st3"/>
			</g>
			<g id="shape61-33" v:mID="61" v:groupContext="shape" transform="translate(54.6669,-31.7016)">
				<title>工作表.61</title>
				<rect x="0" y="239.668" width="12.1507" height="11.532" class="st4"/>
			</g>
			<g id="shape62-35" v:mID="62" v:groupContext="shape" transform="translate(5.61827,-32.827)">
				<title>工作表.62</title>
				<v:userDefs>
					<v:ud v:nameU="SurroundingRegionColor" v:prompt="" v:val="VT0(1):26"/>
					<v:ud v:nameU="SurroundingRegionColor" v:prompt="" v:val="VT5(#5b9bd5)"/>
				</v:userDefs>
				<path d="M4.98 247.56 L0 247.56 L0 249.95 L1.3 249.95 L1.3 251.2 L3.69 251.2 L3.69 249.95 L4.98 249.95 L4.98 247.56
							 ZM12.99 247.56 L8.01 247.56 L8.01 249.95 L9.3 249.95 L9.3 251.2 L11.7 251.2 L11.7 249.95 L12.99 249.95
							 L12.99 247.56 ZM21 247.56 L16.02 247.56 L16.02 249.95 L17.31 249.95 L17.31 251.2 L19.7 251.2 L19.7 249.95
							 L21 249.95 L21 247.56 ZM29.01 247.56 L24.02 247.56 L24.02 249.95 L25.32 249.95 L25.32 251.2 L27.71 251.2
							 L27.71 249.95 L29.01 249.95 L29.01 247.56 ZM37.02 247.56 L32.03 247.56 L32.03 249.95 L33.33 249.95 L33.33
							 251.2 L35.72 251.2 L35.72 249.95 L37.02 249.95 L37.02 247.56 ZM37.02 241.79 L32.03 241.79 L32.03 244.18
							 L33.33 244.18 L33.33 245.43 L35.72 245.43 L35.72 244.18 L37.02 244.18 L37.02 241.79 ZM29.01 241.79 L24.02
							 241.79 L24.02 244.18 L25.32 244.18 L25.32 245.43 L27.71 245.43 L27.71 244.18 L29.01 244.18 L29.01 241.79
							 ZM21 241.79 L16.02 241.79 L16.02 244.18 L17.31 244.18 L17.31 245.43 L19.7 245.43 L19.7 244.18 L21 244.18
							 L21 241.79 ZM12.99 241.79 L8.01 241.79 L8.01 244.18 L9.3 244.18 L9.3 245.43 L11.7 245.43 L11.7 244.18
							 L12.99 244.18 L12.99 241.79 ZM4.98 241.79 L0 241.79 L0 244.18 L1.3 244.18 L1.3 245.43 L3.69 245.43 L3.69
							 244.18 L4.98 244.18 L4.98 241.79 Z" class="st5"/>
			</g>
			<g id="shape63-38" v:mID="63" v:groupContext="shape" transform="translate(55.6646,-33.6193)">
				<title>工作表.63</title>
				<v:userDefs>
					<v:ud v:nameU="SurroundingRegionColor" v:prompt="" v:val="VT0(1):26"/>
					<v:ud v:nameU="SurroundingRegionColor" v:prompt="" v:val="VT5(#aad288)"/>
				</v:userDefs>
				<path d="M5.63 247.08 L7.14 245.13 L8.86 245.13 L7.97 246.01 L9 246.01 L10.16 244.76 L9.01 243.5 L7.96 243.5 L8.85
							 244.38 L6.61 244.38 L5.08 246.36 L3.55 244.38 L1.31 244.38 L2.19 243.5 L1.15 243.5 L0 244.76 L1.15 246.01
							 L2.19 246.01 L1.3 245.13 L3.01 245.13 L4.52 247.08 L2.6 249.57 L1.3 249.58 L2.19 248.7 L1.15 248.7 L0
							 249.95 L1.15 251.2 L2.19 251.2 L1.31 250.33 L3.14 250.33 L5.08 247.81 L7.02 250.33 L8.85 250.33 L7.96
							 251.2 L9.01 251.2 L10.16 249.95 L9 248.7 L7.97 248.7 L8.86 249.58 L7.55 249.57 L5.63 247.08 Z"
						class="st5"/>
			</g>
			<g id="shape59-41" v:mID="59" v:groupContext="groupContent">
				<v:textBlock v:margins="rect(4,4,4,4)" v:tabSpace="42.5197"/>
				<v:textRect cx="35.4331" cy="237.026" width="72.31" height="20.0036"/>
				<text x="4.41" y="240.03" class="st6" v:langID="2052"><v:paragraph v:horizAlign="1"/><v:tabList/>vmbr2 (layer 2)</text>			</g>
		</g>
		<g id="group66-43" transform="translate(244.03,-180.333)" v:mID="66" v:groupContext="group">
			<v:custProps>
				<v:cp v:nameU="AssetNumber" v:lbl="資產編號" v:prompt="" v:type="0" v:format="" v:sortKey="Asset" v:invis="false"
						v:ask="false" v:langID="1028" v:cal="0"/>
				<v:cp v:nameU="SerialNumber" v:lbl="序號" v:prompt="" v:type="0" v:format="" v:sortKey="Asset" v:invis="false"
						v:ask="false" v:langID="1028" v:cal="0"/>
				<v:cp v:nameU="Location" v:lbl="位置" v:prompt="" v:type="0" v:format="" v:sortKey="Asset" v:invis="false"
						v:ask="false" v:langID="1028" v:cal="0"/>
				<v:cp v:nameU="Building" v:lbl="建築物" v:prompt="" v:type="0" v:format="" v:sortKey="Asset" v:invis="false"
						v:ask="false" v:langID="1028" v:cal="0"/>
				<v:cp v:nameU="Room" v:lbl="房間" v:prompt="" v:type="0" v:format="" v:sortKey="Asset" v:invis="false" v:ask="false"
						v:langID="1028" v:cal="0"/>
				<v:cp v:nameU="Manufacturer" v:lbl="製造廠商" v:prompt="" v:type="0" v:format="" v:sortKey="Equipment" v:invis="false"
						v:ask="false" v:langID="1028" v:cal="0"/>
				<v:cp v:nameU="ProductNumber" v:lbl="產品編號" v:prompt="" v:type="0" v:format="" v:sortKey="Equipment" v:invis="false"
						v:ask="false" v:langID="1028" v:cal="0"/>
				<v:cp v:nameU="PartNumber" v:lbl="零件編號" v:prompt="" v:type="0" v:format="" v:sortKey="Equipment" v:invis="false"
						v:ask="false" v:langID="1028" v:cal="0"/>
				<v:cp v:nameU="ProductDescription" v:lbl="產品說明" v:prompt="" v:type="0" v:format="" v:sortKey="Equipment"
						v:invis="false" v:ask="false" v:langID="1028" v:cal="0"/>
				<v:cp v:nameU="NetworkName" v:lbl="網路名稱" v:prompt="" v:type="0" v:format="" v:sortKey="Network" v:invis="false"
						v:ask="false" v:langID="1028" v:cal="0"/>
				<v:cp v:nameU="IPAddress" v:lbl="IP 位址" v:prompt="" v:type="0" v:format="" v:sortKey="Network" v:invis="false"
						v:ask="false" v:langID="1028" v:cal="0"/>
				<v:cp v:nameU="SubnetMask" v:lbl="子網路遮罩" v:prompt="" v:type="0" v:format="" v:sortKey="Network" v:invis="false"
						v:ask="false" v:langID="1028" v:cal="0"/>
				<v:cp v:nameU="AdminInterface" v:lbl="系統管理介面" v:prompt="" v:type="0" v:format="" v:sortKey="Network"
						v:invis="false" v:ask="false" v:langID="1028" v:cal="0"/>
				<v:cp v:nameU="NumberofPorts" v:lbl="連接埠數目" v:prompt="" v:type="0" v:format="" v:sortKey="Network" v:invis="false"
						v:ask="false" v:langID="1028" v:cal="0"/>
				<v:cp v:nameU="CommunityString" v:lbl="群區字串" v:prompt="" v:type="0" v:format="" v:sortKey="Network" v:invis="false"
						v:ask="false" v:langID="1028" v:cal="0"/>
				<v:cp v:nameU="NetworkDescription" v:lbl="網路描述" v:prompt="" v:type="0" v:format="" v:sortKey="Network"
						v:invis="false" v:ask="false" v:langID="1028" v:cal="0"/>
				<v:cp v:nameU="MACAddress" v:lbl="MAC 位址" v:prompt="" v:type="0" v:format="" v:sortKey="Network" v:invis="false"
						v:ask="false" v:langID="1028" v:cal="0"/>
				<v:cp v:nameU="ShapeClass" v:lbl="ShapeClass" v:prompt="" v:type="0" v:format="" v:sortKey="" v:invis="true"
						v:ask="false" v:langID="1028" v:cal="0" v:val="VT4(設備)"/>
				<v:cp v:nameU="ShapeType" v:lbl="ShapeType" v:prompt="" v:type="0" v:format="" v:sortKey="" v:invis="true"
						v:ask="false" v:langID="1028" v:cal="0" v:val="VT4(裝置)"/>
				<v:cp v:nameU="SubShapeType" v:lbl="SubShapeType" v:prompt="" v:type="0" v:format="" v:sortKey="" v:invis="true"
						v:ask="false" v:langID="1028" v:cal="0" v:val="VT4(路由器)"/>
			</v:custProps>
			<v:userDefs>
				<v:ud v:nameU="visVersion" v:prompt="" v:val="VT0(15):26"/>
				<v:ud v:nameU="ShapeClass" v:prompt="" v:val="VT0(5):26"/>
				<v:ud v:nameU="SolSH" v:prompt="" v:val="VT15({BF0433D9-CD73-4EB5-8390-8653BE590246}):41"/>
				<v:ud v:nameU="visLegendShape" v:prompt="" v:val="VT0(2):26"/>
				<v:ud v:nameU="visIsConnected" v:prompt="" v:val="VT0(0):26"/>
			</v:userDefs>
			<title>路由器</title>
			<desc>带DHCP服务的路由器</desc>
			<g id="shape67-44" v:mID="67" v:groupContext="shape" transform="translate(0,-19.2171)">
				<title>工作表.67</title>
				<path d="M65.37 251.2 L66.78 248.36 L4.01 248.36 L5.42 251.2 L65.37 251.2 ZM70.87 218.77 L0 218.77 L0 247.19 L70.87
							 247.19 L70.87 218.77 Z" class="st3"/>
			</g>
			<g id="shape68-46" v:mID="68" v:groupContext="shape" transform="translate(48.3243,-28.85)">
				<title>工作表.68</title>
				<rect x="0" y="233.693" width="18.4472" height="17.5068" class="st4"/>
			</g>
			<g id="shape69-48" v:mID="69" v:groupContext="shape" transform="translate(7.96323,-32.8702)">
				<title>工作表.69</title>
				<v:userDefs>
					<v:ud v:nameU="SurroundingRegionColor" v:prompt="" v:val="VT0(1):26"/>
					<v:ud v:nameU="SurroundingRegionColor" v:prompt="" v:val="VT5(#5b9bd5)"/>
				</v:userDefs>
				<path d="M4.99 241.79 L0 241.79 L0 244.18 L1.3 244.18 L1.3 245.43 L3.69 245.43 L3.69 244.18 L4.99 244.18 L4.99 241.79
							 ZM12.99 241.79 L8.01 241.79 L8.01 244.18 L9.3 244.18 L9.3 245.43 L11.7 245.43 L11.7 244.18 L12.99 244.18
							 L12.99 241.79 ZM21 241.79 L16.02 241.79 L16.02 244.18 L17.31 244.18 L17.31 245.43 L19.71 245.43 L19.71
							 244.18 L21 244.18 L21 241.79 ZM29.01 241.79 L24.03 241.79 L24.03 244.18 L25.32 244.18 L25.32 245.43
							 L27.72 245.43 L27.72 244.18 L29.01 244.18 L29.01 241.79 ZM29.01 247.56 L24.03 247.56 L24.03 249.96 L25.32
							 249.96 L25.32 251.2 L27.72 251.2 L27.72 249.96 L29.01 249.96 L29.01 247.56 ZM21 247.56 L16.02 247.56
							 L16.02 249.96 L17.31 249.96 L17.31 251.2 L19.71 251.2 L19.71 249.96 L21 249.96 L21 247.56 ZM12.99 247.56
							 L8.01 247.56 L8.01 249.96 L9.3 249.96 L9.3 251.2 L11.7 251.2 L11.7 249.96 L12.99 249.96 L12.99 247.56
							 ZM4.99 247.56 L0 247.56 L0 249.96 L1.3 249.96 L1.3 251.2 L3.69 251.2 L3.69 249.96 L4.99 249.96 L4.99
							 247.56 Z" class="st5"/>
			</g>
			<g id="shape70-51" v:mID="70" v:groupContext="shape" transform="translate(49.7558,-29.8782)">
				<title>工作表.70</title>
				<v:userDefs>
					<v:ud v:nameU="SurroundingRegionColor" v:prompt="" v:val="VT0(1):26"/>
					<v:ud v:nameU="SurroundingRegionColor" v:prompt="" v:val="VT5(#aad288)"/>
				</v:userDefs>
				<path d="M7.43 249.36 L6.18 248.1 L6.18 249.56 L7.96 251.2 L9.73 249.57 L9.73 248.09 L8.49 249.35 L8.49 245.03 L7.43
							 245.03 L7.43 249.36 ZM11.59 242.95 L12.85 241.7 L11.39 241.7 L9.75 243.47 L11.38 245.25 L12.86 245.25
							 L11.6 244.01 L15.92 244.01 L15.92 242.95 L11.59 242.95 ZM8.48 237.59 L9.73 238.85 L9.73 237.39 L7.96
							 235.75 L6.18 237.38 L6.18 238.86 L7.42 237.6 L7.42 241.92 L8.48 241.92 L8.48 237.59 ZM4.33 244 L3.07
							 245.25 L4.53 245.25 L6.17 243.47 L4.54 241.7 L3.06 241.7 L4.32 242.94 L0 242.94 L0 244 L4.33 244 Z"
						class="st5"/>
			</g>
			<g id="shape66-54" v:mID="66" v:groupContext="groupContent">
				<v:textBlock v:margins="rect(4,4,4,4)" v:tabSpace="42.5197"/>
				<v:textRect cx="35.4331" cy="242.696" width="103.15" height="21.3161"/>
				<text x="-11.01" y="246.02" class="st7" v:langID="2052"><v:paragraph v:horizAlign="1"/><v:tabList/>带<tspan
							class="st8">DHCP</tspan>服务的路由器</text>			</g>
		</g>
		<g id="group75-57" transform="translate(391.431,-25.8453)" v:mID="75" v:groupContext="group">
			<v:custProps>
				<v:cp v:nameU="AssetNumber" v:lbl="資產編號" v:prompt="" v:type="0" v:format="" v:sortKey="Asset" v:invis="false"
						v:ask="false" v:langID="1028" v:cal="0"/>
				<v:cp v:nameU="SerialNumber" v:lbl="序號" v:prompt="" v:type="0" v:format="" v:sortKey="Asset" v:invis="false"
						v:ask="false" v:langID="1028" v:cal="0"/>
				<v:cp v:nameU="Location" v:lbl="位置" v:prompt="" v:type="0" v:format="" v:sortKey="Asset" v:invis="false"
						v:ask="false" v:langID="1028" v:cal="0"/>
				<v:cp v:nameU="Building" v:lbl="建築物" v:prompt="" v:type="0" v:format="" v:sortKey="Asset" v:invis="false"
						v:ask="false" v:langID="1028" v:cal="0"/>
				<v:cp v:nameU="Room" v:lbl="房間" v:prompt="" v:type="0" v:format="" v:sortKey="Asset" v:invis="false" v:ask="false"
						v:langID="1028" v:cal="0"/>
				<v:cp v:nameU="Manufacturer" v:lbl="製造商" v:prompt="" v:type="0" v:format="" v:sortKey="Equipment" v:invis="false"
						v:ask="false" v:langID="1028" v:cal="0"/>
				<v:cp v:nameU="ProductNumber" v:lbl="產品編號" v:prompt="" v:type="0" v:format="" v:sortKey="Equipment" v:invis="false"
						v:ask="false" v:langID="1028" v:cal="0"/>
				<v:cp v:nameU="PartNumber" v:lbl="零件編號" v:prompt="" v:type="0" v:format="" v:sortKey="Equipment" v:invis="false"
						v:ask="false" v:langID="1028" v:cal="0"/>
				<v:cp v:nameU="ProductDescription" v:lbl="產品說明" v:prompt="" v:type="0" v:format="" v:sortKey="Equipment"
						v:invis="false" v:ask="false" v:langID="1028" v:cal="0"/>
				<v:cp v:nameU="NetworkName" v:lbl="網路名稱" v:prompt="" v:type="0" v:format="" v:sortKey="Network" v:invis="false"
						v:ask="false" v:langID="1028" v:cal="0"/>
				<v:cp v:nameU="IPAddress" v:lbl="IP 位址" v:prompt="" v:type="0" v:format="" v:sortKey="Network" v:invis="false"
						v:ask="false" v:langID="1028" v:cal="0"/>
				<v:cp v:nameU="SubnetMask" v:lbl="子網路遮罩" v:prompt="" v:type="0" v:format="" v:sortKey="Network" v:invis="false"
						v:ask="false" v:langID="1028" v:cal="0"/>
				<v:cp v:nameU="AdminInterface" v:lbl="系統管理介面" v:prompt="" v:type="0" v:format="" v:sortKey="Network"
						v:invis="false" v:ask="false" v:langID="1028" v:cal="0"/>
				<v:cp v:nameU="NumberofPorts" v:lbl="連接埠數目" v:prompt="" v:type="0" v:format="" v:sortKey="Network" v:invis="false"
						v:ask="false" v:langID="1028" v:cal="0"/>
				<v:cp v:nameU="CommunityString" v:lbl="群區字串" v:prompt="" v:type="0" v:format="" v:sortKey="Network" v:invis="false"
						v:ask="false" v:langID="1028" v:cal="0"/>
				<v:cp v:nameU="NetworkDescription" v:lbl="網路描述" v:prompt="" v:type="0" v:format="" v:sortKey="Network"
						v:invis="false" v:ask="false" v:langID="1028" v:cal="0"/>
				<v:cp v:nameU="MACAddress" v:lbl="MAC 位址" v:prompt="" v:type="0" v:format="" v:sortKey="Network" v:invis="false"
						v:ask="false" v:langID="1028" v:cal="0"/>
				<v:cp v:nameU="CPU" v:lbl="CPU" v:prompt="" v:type="0" v:format="" v:sortKey="Workstation" v:invis="false"
						v:ask="false" v:langID="1028" v:cal="0"/>
				<v:cp v:nameU="Memory" v:lbl="記憶體" v:prompt="" v:type="0" v:format="" v:sortKey="Workstation" v:invis="false"
						v:ask="false" v:langID="1028" v:cal="0"/>
				<v:cp v:nameU="OperatingSystem" v:lbl="作業系統" v:prompt="" v:type="0" v:format="" v:sortKey="Workstation"
						v:invis="false" v:ask="false" v:langID="1028" v:cal="0"/>
				<v:cp v:nameU="HardDriveSize" v:lbl="硬碟容量" v:prompt="" v:type="0" v:format="" v:sortKey="Workstation"
						v:invis="false" v:ask="false" v:langID="1028" v:cal="0"/>
				<v:cp v:nameU="ShapeClass" v:lbl="ShapeClass" v:prompt="" v:type="0" v:format="" v:sortKey="" v:invis="true"
						v:ask="false" v:langID="1028" v:cal="0" v:val="VT4(設備)"/>
				<v:cp v:nameU="ShapeType" v:lbl="ShapeType" v:prompt="" v:type="0" v:format="" v:sortKey="" v:invis="true"
						v:ask="false" v:langID="1028" v:cal="0" v:val="VT4(電腦)"/>
				<v:cp v:nameU="SubShapeType" v:lbl="SubShapeType" v:prompt="" v:type="0" v:format="" v:sortKey="" v:invis="true"
						v:ask="false" v:langID="1028" v:cal="0" v:val="VT4(膝上型電腦)"/>
			</v:custProps>
			<v:userDefs>
				<v:ud v:nameU="visVersion" v:prompt="" v:val="VT0(15):26"/>
				<v:ud v:nameU="ShapeClass" v:prompt="" v:val="VT0(5):26"/>
				<v:ud v:nameU="SolSH" v:prompt="" v:val="VT15({BF0433D9-CD73-4EB5-8390-8653BE590246}):41"/>
				<v:ud v:nameU="visLegendShape" v:prompt="" v:val="VT0(2):26"/>
				<v:ud v:nameU="visIsConnected" v:prompt="" v:val="VT0(0):26"/>
			</v:userDefs>
			<title>膝上型電腦</title>
			<g id="shape76-58" v:mID="76" v:groupContext="shape" transform="translate(0,-6.56146)">
				<title>工作表.76</title>
				<path d="M0 251.2 L70.87 251.2 L70.87 243.77 L64.8 233.52 L5.71 233.52 L0 243.77 L0 251.2 ZM64.99 231.83 L64.99 199.38
							 C64.99 196.11 62.34 193.46 59.06 193.46 L11.64 193.46 C8.37 193.46 5.71 196.11 5.71 199.38 L5.71 231.83
							 L64.99 231.83 Z" class="st3"/>
			</g>
			<g id="shape77-60" v:mID="77" v:groupContext="shape" transform="translate(6.97248,-14.8259)">
				<title>工作表.77</title>
				<v:userDefs>
					<v:ud v:nameU="SurroundingRegionColor" v:prompt="" v:val="VT0(1):26"/>
					<v:ud v:nameU="SurroundingRegionColor" v:prompt="" v:val="VT5(#5b9bd5)"/>
				</v:userDefs>
				<path d="M2.86 246.08 L0 251.2 L56.8 251.2 L53.93 246.08 L2.86 246.08 Z" class="st5"/>
			</g>
			<g id="shape78-63" v:mID="78" v:groupContext="shape" transform="translate(11.4259,-32.1061)">
				<title>工作表.78</title>
				<v:userDefs>
					<v:ud v:nameU="SurroundingRegionColor" v:prompt="" v:val="VT0(1):26"/>
					<v:ud v:nameU="SurroundingRegionColor" v:prompt="" v:val="VT5(#5b9bd5)"/>
				</v:userDefs>
				<rect x="0" y="224.549" width="48.0152" height="26.6509" class="st9"/>
			</g>
		</g>
		<g id="shape79-65" v:mID="79" v:groupContext="shape" v:layerMember="0" transform="translate(397.142,-54.1918)">
			<title>動態連接器</title>
			<desc>UART串口连接</desc>
			<v:textBlock v:margins="rect(4,4,4,4)" v:tabSpace="42.5197"/>
			<v:textRect cx="-41.1233" cy="244.113" width="59.82" height="18.6536"/>
			<path d="M-1.91 244.11 L-2.27 244.11 L-79.98 244.11" class="st10"/>
			<rect v:rectContext="textBkgnd" x="-66.125" y="238.788" width="50.0037" height="10.6501" class="st12"/>
			<text x="-66.13" y="246.78" class="st13" v:langID="2052"><v:paragraph v:horizAlign="1"/><v:tabList/>UART<tspan
						class="st14">串口连接</tspan></text>		</g>
		<g id="group100-77" transform="translate(145.962,-116.365)" v:mID="100" v:groupContext="group">
			<title>網路介面</title>
			<desc>树莓派网卡 eth0</desc>
			<g id="group101-78" v:mID="101" v:groupContext="group">
				<v:userDefs>
					<v:ud v:nameU="msvDisableCustomConnectionPoints" v:prompt="" v:val="VT0(1):5"/>
				</v:userDefs>
				<title>工作表.101</title>
				<g id="shape102-79" v:mID="102" v:groupContext="shape" transform="translate(21.0223,-1.48617)">
					<title>工作表.102</title>
					<v:userDefs>
						<v:ud v:nameU="msvDisableCustomConnectionPoints" v:prompt="" v:val="VT0(1):5"/>
					</v:userDefs>
					<path d="M0 231.65 L1.74 231.65 C1.99 231.65 2.2 231.88 2.2 232.17 L2.2 237.59 C2.2 237.88 1.99 238.12 1.73 238.12
								 L0 238.12 L0 231.65 L0 231.65 ZM0 241.08 L1.74 241.08 C1.99 241.08 2.2 241.31 2.2 241.6 L2.2 250.67
								 C2.2 250.96 1.99 251.2 1.73 251.2 L0 251.2 L0 241.08 L0 241.08 Z" class="st15"/>
				</g>
				<g id="shape103-81" v:mID="103" v:groupContext="shape" transform="translate(2.22639,2.84217E-14)">
					<title>工作表.103</title>
					<v:userDefs>
						<v:ud v:nameU="msvDisableCustomConnectionPoints" v:prompt="" v:val="VT0(1):5"/>
					</v:userDefs>
					<path d="M0.94 227.98 L17.85 227.98 C18.37 227.98 18.8 228.46 18.8 229.05 L18.8 250.13 C18.8 250.72 18.37 251.2
								 17.85 251.2 L0.94 251.2 C0.42 251.2 0 250.72 0 250.13 L0 229.05 C0 228.46 0.42 227.98 0.94 227.98
								 Z" class="st15"/>
				</g>
				<g id="shape104-83" v:mID="104" v:groupContext="shape" transform="translate(6.14102,-5.57314)">
					<title>工作表.104</title>
					<v:userDefs>
						<v:ud v:nameU="msvDisableCustomConnectionPoints" v:prompt="" v:val="VT0(1):5"/>
					</v:userDefs>
					<path d="M1.23 251.2 L0.26 251.2 C0.12 251.19 0 251.04 0.01 250.87 L0.01 237.95 C0 237.79 0.11 237.65 0.25 237.64
								 C0.26 237.64 0.26 237.64 0.27 237.64 L2.9 237.64 C3.05 237.64 3.16 237.77 3.16 237.93 C3.16 237.94
								 3.16 237.94 3.16 237.95 C3.17 238.12 3.05 238.26 2.9 238.27 L0.52 238.27 L0.52 250.55 L1.23 250.55
								 C1.39 250.56 1.5 250.7 1.49 250.87 C1.49 251.04 1.38 251.19 1.23 251.2 Z" class="st15"/>
				</g>
				<g id="shape105-85" v:mID="105" v:groupContext="shape" transform="translate(4.8885,-3.99408)">
					<title>工作表.105</title>
					<v:userDefs>
						<v:ud v:nameU="msvDisableCustomConnectionPoints" v:prompt="" v:val="VT0(1):5"/>
					</v:userDefs>
					<path d="M2.63 251.2 L0.44 251.2 C0.29 251.19 0.17 251.04 0.18 250.88 L0.18 250.87 L0 234.88 C0 234.8 0.03 234.71
								 0.08 234.65 C0.13 234.59 0.19 234.55 0.26 234.56 L4.16 234.56 L4.16 235.19 L0.54 235.19 L0.7 250.55
								 L2.63 250.55 L2.63 251.2 ZM10.82 249.78 L8.65 249.78 C8.57 249.77 8.51 249.73 8.46 249.67 C8.4 249.61
								 8.37 249.53 8.37 249.45 L8.37 241.88 C8.36 241.72 8.47 241.58 8.62 241.57 C8.62 241.57 8.63 241.57
								 8.64 241.57 L9.88 241.57 L9.88 238.09 L10.4 238.09 L10.4 241.86 C10.4 242.03 10.3 242.17 10.15 242.19
								 L8.91 242.19 L8.91 249.03 L10.82 249.03 L10.82 249.78 Z" class="st15"/>
				</g>
				<g id="shape106-87" v:mID="106" v:groupContext="shape" transform="translate(8.97387,-17.1838)">
					<title>工作表.106</title>
					<v:userDefs>
						<v:ud v:nameU="msvDisableCustomConnectionPoints" v:prompt="" v:val="VT0(1):5"/>
					</v:userDefs>
					<path d="M0.36 246.39 L8.03 246.39 C8.23 246.39 8.39 246.56 8.39 246.79 L8.39 250.8 C8.39 251.02 8.23 251.2 8.03
								 251.2 L0.36 251.2 C0.16 251.2 0 251.02 0 250.8 L0 246.79 C0 246.56 0.16 246.39 0.36 246.39 Z"
							class="st15"/>
				</g>
				<g id="shape107-89" v:mID="107" v:groupContext="shape" transform="translate(9.91769,-1.25396)">
					<title>工作表.107</title>
					<v:userDefs>
						<v:ud v:nameU="msvDisableCustomConnectionPoints" v:prompt="" v:val="VT0(1):5"/>
					</v:userDefs>
					<path d="M1.49 244.02 L1.49 250.8 C1.49 251.02 1.33 251.2 1.13 251.2 L0.36 251.2 C0.16 251.2 0 251.02 0 250.8
								 L0 244.02 C0 243.79 0.16 243.61 0.36 243.61 L1.13 243.61 C1.33 243.61 1.49 243.79 1.49 244.02 Z"
							class="st15"/>
				</g>
				<g id="shape108-91" v:mID="108" v:groupContext="shape" transform="translate(7.37715,-1.22299)">
					<title>工作表.108</title>
					<v:userDefs>
						<v:ud v:nameU="msvDisableCustomConnectionPoints" v:prompt="" v:val="VT0(1):5"/>
					</v:userDefs>
					<path d="M1.49 244.02 L1.49 250.8 C1.49 251.02 1.33 251.2 1.13 251.2 L0.36 251.2 C0.16 251.2 0 251.02 0 250.8
								 L0 244.02 C0 243.79 0.16 243.61 0.36 243.61 L1.13 243.61 C1.33 243.62 1.49 243.79 1.49 244.02 Z"
							class="st15"/>
				</g>
				<g id="shape109-93" v:mID="109" v:groupContext="shape" transform="translate(15.5438,-1.22299)">
					<title>工作表.109</title>
					<v:userDefs>
						<v:ud v:nameU="msvDisableCustomConnectionPoints" v:prompt="" v:val="VT0(1):5"/>
					</v:userDefs>
					<path d="M1.49 244.02 L1.49 250.8 C1.49 251.02 1.33 251.2 1.13 251.2 L0.36 251.2 C0.16 251.2 0 251.02 0 250.8
								 L0 244.02 C0 243.79 0.16 243.61 0.36 243.61 L1.13 243.61 C1.33 243.62 1.49 243.79 1.49 244.02 Z"
							class="st15"/>
				</g>
				<g id="shape110-95" v:mID="110" v:groupContext="shape" transform="translate(8.9725,-11.3321)">
					<title>工作表.110</title>
					<v:userDefs>
						<v:ud v:nameU="msvDisableCustomConnectionPoints" v:prompt="" v:val="VT0(1):5"/>
					</v:userDefs>
					<ellipse cx="1.42189" cy="249.466" rx="1.42189" ry="1.73387" class="st15"/>
				</g>
				<g id="shape111-97" v:mID="111" v:groupContext="shape" transform="translate(0,-6.57785)">
					<title>工作表.111</title>
					<v:userDefs>
						<v:ud v:nameU="msvDisableCustomConnectionPoints" v:prompt="" v:val="VT0(1):5"/>
					</v:userDefs>
					<path d="M2.2 251.2 L0.46 251.2 C0.23 251.2 0.03 251 0 250.73 L0 241.66 C0 241.37 0.21 241.14 0.46 241.14 L2.2
								 241.14 L2.2 251.2 Z" class="st15"/>
				</g>
			</g>
			<g id="shape100-99" v:mID="100" v:groupContext="groupContent">
				<v:textBlock v:margins="rect(0,0,0,0)" v:tabSpace="42.5197"/>
				<v:textRect cx="11.6107" cy="257.858" width="72" height="13.3161"/>
				<text x="-23.84" y="261.19" class="st16" v:langID="2052"><v:paragraph v:horizAlign="1"/><v:tabList/>树莓派网卡<tspan
							class="st8"> </tspan><tspan class="st8">eth0</tspan></text>			</g>
		</g>
		<g id="shape112-103" v:mID="112" v:groupContext="shape" v:layerMember="0" transform="translate(244.03,-215.767)">
			<title>動態連接器.112</title>
			<path d="M-1.91 251.2 L-2.27 251.2 L-86.46 251.2 L-86.46 325.11" class="st10"/>
		</g>
		<g id="shape113-110" v:mID="113" v:groupContext="shape" v:layerMember="0" transform="translate(169.184,-127.976)">
			<title>動態連接器.113</title>
			<path d="M1.91 251.2 L2.27 251.2 L91.55 251.2 L91.55 295.67" class="st10"/>
		</g>
		<g id="shape114-117" v:mID="114" v:groupContext="shape" v:layerMember="0" transform="translate(314.896,-215.767)">
			<title>動態連接器.114</title>
			<path d="M1.91 251.2 L2.27 251.2 L111.97 251.2 L111.97 374.55" class="st10"/>
		</g>
	</g>
</svg>
